<?xml version="1.0" encoding="iso-8859-1"?>
<!-- Generator: Adobe Illustrator 19.0.0, SVG Export Plug-In . SVG Version: 6.00 Build 0)  -->
<svg version="1.1" id="Layer_1" xmlns="http://www.w3.org/2000/svg" xmlns:xlink="http://www.w3.org/1999/xlink" x="0px" y="0px"
	 viewBox="0 0 512 512" style="enable-background:new 0 0 512 512;" xml:space="preserve">
<g>
	<g>
		<path d="M461.913,205.913H133.565v-16.696c0-27.619-22.468-50.087-50.087-50.087H66.783V89.044c0-9.206,7.49-16.696,16.696-16.696
			s16.696,7.49,16.696,16.696c0,9.223,7.479,16.696,16.696,16.696s16.696-7.473,16.696-16.696c0-27.619-22.468-50.087-50.087-50.087
			S33.391,61.425,33.391,89.044c0,45.085,0,73.996,0,119.946C14,215.905,0,234.264,0,256s14,40.096,33.391,47.01v19.772
			c0,48.374,29.539,89.97,71.526,107.71l-9.194,18.387c-4.119,8.25-0.782,18.272,7.467,22.402c8.32,4.142,18.316,0.703,22.402-7.467
			l12.409-24.818c4.031,0.423,8.116,0.654,12.258,0.654h211.478c4.139,0,8.224-0.232,12.253-0.653l12.4,24.816
			c4.085,8.171,14.082,11.609,22.402,7.467c8.239-4.119,11.587-14.152,7.467-22.402l-9.187-18.385
			c41.991-17.739,71.533-59.336,71.533-107.713v-19.772C498,296.097,512,277.738,512,256
			C512,228.381,489.532,205.913,461.913,205.913z M461.913,272.696H50.087c-9.206,0-16.696-7.49-16.696-16.696
			c0-9.197,7.475-16.678,16.669-16.693c0,0,0.018,0.002,0.027,0.002c0.018,0,0.036-0.006,0.053-0.006c161.667,0,259.268,0,411.773,0
			c9.206,0,16.696,7.49,16.696,16.696C478.609,265.205,471.119,272.696,461.913,272.696z"/>
	</g>
</g>
<g>
</g>
<g>
</g>
<g>
</g>
<g>
</g>
<g>
</g>
<g>
</g>
<g>
</g>
<g>
</g>
<g>
</g>
<g>
</g>
<g>
</g>
<g>
</g>
<g>
</g>
<g>
</g>
<g>
</g>
</svg>
