<svg version="1.1" id="designs" xmlns="http://www.w3.org/2000/svg" xmlns:xlink="http://www.w3.org/1999/xlink" x="0px" y="0px"
	 width="32px" height="32px" viewBox="0 0 32 32" style="enable-background:new 0 0 32 32;" xml:space="preserve">
<style type="text/css">
	.sketchy_een{fill:#111918;}
</style>
<path class="sketchy_een" d="M30.966,7.69c-0.039-0.142-0.112-0.268-0.217-0.372c-0.157-0.157-0.373-0.247-0.595-0.248
	c-0.033-0.028-0.065-0.057-0.099-0.084c-0.242-0.193-0.455-0.42-0.682-0.628c-0.228-0.209-0.457-0.418-0.684-0.626
	c-0.236-0.221-0.463-0.453-0.701-0.672c-0.485-0.441-0.932-0.918-1.369-1.405c-0.396-0.443-0.763-0.911-1.142-1.369
	c0.076-0.291-0.008-0.604-0.22-0.816c-0.167-0.167-0.376-0.244-0.585-0.244c-0.279,0-0.558,0.139-0.73,0.389
	c-0.102,0.109-0.216,0.211-0.32,0.316c-0.227,0.223-0.459,0.437-0.682,0.662c-0.254,0.26-0.498,0.526-0.768,0.772
	c-0.286,0.26-0.573,0.516-0.859,0.776c-0.593,0.546-1.19,1.087-1.781,1.637c-0.579,0.536-1.168,1.064-1.737,1.609
	c-0.593,0.569-1.219,1.101-1.822,1.661c-0.601,0.557-1.223,1.091-1.814,1.661c-1.152,1.111-2.263,2.265-3.436,3.357
	c-0.619,0.575-1.243,1.146-1.864,1.722c-0.591,0.548-1.16,1.119-1.737,1.68c-0.587,0.571-1.154,1.16-1.728,1.745
	c-0.569,0.579-1.17,1.127-1.743,1.704c-0.362,0.364-0.739,0.715-1.111,1.07c-0.443,0.424-0.869,0.859-1.29,1.304
	c-0.325,0.341-0.341,0.884,0,1.223c0.106,0.106,0.243,0.168,0.387,0.207c0.02,0.027,0.03,0.058,0.053,0.083
	c0.542,0.569,1.119,1.103,1.67,1.665c0.483,0.491,0.967,0.983,1.432,1.489c0.205,0.223,0.424,0.427,0.634,0.642
	c0.193,0.197,0.368,0.408,0.554,0.609c0.408,0.445,0.814,0.884,1.237,1.314c0.111,0.112,0.254,0.166,0.402,0.188
	c0.096,0.041,0.199,0.065,0.305,0.065c0.217,0,0.382-0.091,0.544-0.227c0.628-0.526,1.192-1.117,1.743-1.722
	c0.526-0.579,1.062-1.148,1.609-1.706c0.516-0.522,1.04-1.036,1.535-1.58c0.534-0.587,1.083-1.158,1.643-1.72
	c1.093-1.099,2.212-2.171,3.307-3.268c1.083-1.087,2.147-2.193,3.237-3.274c0.534-0.53,1.083-1.04,1.617-1.566
	c0.571-0.561,1.145-1.119,1.726-1.669c0.268-0.254,0.542-0.5,0.812-0.751c0.288-0.266,0.565-0.544,0.847-0.816
	c0.549-0.524,1.101-1.049,1.671-1.551c0.072-0.039,0.141-0.083,0.197-0.139c0.019-0.019,0.029-0.045,0.046-0.066
	c0.217-0.177,0.437-0.351,0.638-0.546c0.258-0.25,0.502-0.516,0.76-0.766c0.205-0.199,0.418-0.4,0.636-0.587
	c0.118-0.1,0.201-0.195,0.297-0.327c0.118-0.162,0.232-0.376,0.205-0.581C30.986,7.839,30.976,7.764,30.966,7.69z M28.014,9.206
	C27.91,9.1,27.808,8.992,27.705,8.889c-0.28-0.278-0.565-0.554-0.851-0.827c-0.177-0.17-0.408-0.257-0.638-0.257
	c-0.226,0-0.452,0.084-0.625,0.257c-0.337,0.337-0.355,0.93,0,1.263c0.288,0.272,0.575,0.546,0.869,0.81
	c0.102,0.092,0.204,0.187,0.306,0.282c-0.137,0.135-0.277,0.267-0.411,0.404c-0.29,0.295-0.579,0.587-0.869,0.881
	c-0.048,0.049-0.097,0.097-0.145,0.147c-0.308-0.283-0.593-0.591-0.883-0.893c-0.38-0.396-0.784-0.77-1.19-1.141
	c-0.178-0.161-0.403-0.248-0.627-0.248c-0.214,0-0.426,0.079-0.595,0.248c-0.315,0.313-0.357,0.914,0,1.221
	c0.388,0.335,0.78,0.664,1.174,0.995c0.329,0.275,0.681,0.546,0.96,0.873c0.014,0.019,0.031,0.03,0.045,0.048
	c-0.38,0.364-0.762,0.727-1.138,1.094c-0.277,0.272-0.554,0.544-0.829,0.816c-0.012-0.009-0.022-0.02-0.034-0.028
	c-0.373-0.307-0.714-0.661-1.073-0.983c-0.178-0.159-0.401-0.245-0.622-0.245c-0.21,0-0.418,0.078-0.584,0.245
	c-0.309,0.307-0.357,0.906,0,1.208c0.238,0.201,0.479,0.398,0.723,0.595c0.144,0.116,0.287,0.236,0.426,0.358
	c-0.443,0.438-0.879,0.881-1.318,1.323c-0.177,0.18-0.356,0.357-0.532,0.538c-0.026-0.017-0.045-0.044-0.072-0.058
	c-0.245-0.231-0.47-0.488-0.708-0.725c-0.404-0.404-0.814-0.802-1.231-1.194c-0.174-0.163-0.398-0.248-0.621-0.248
	c-0.217,0-0.432,0.08-0.6,0.248c-0.321,0.321-0.349,0.906,0,1.223c0.416,0.376,0.835,0.749,1.257,1.119
	c0.163,0.142,0.327,0.282,0.492,0.422c0.11,0.096,0.225,0.187,0.331,0.287c0.01,0.02,0.031,0.029,0.043,0.048
	c-0.536,0.546-1.066,1.097-1.614,1.631c-0.141,0.138-0.285,0.273-0.427,0.41c-0.128-0.12-0.241-0.262-0.359-0.39
	c-0.207-0.225-0.418-0.447-0.632-0.668c-0.164-0.167-0.385-0.25-0.607-0.25c-0.224,0-0.449,0.084-0.615,0.25
	c-0.329,0.331-0.335,0.892,0,1.221c0.238,0.232,0.479,0.463,0.725,0.688c0.102,0.092,0.209,0.183,0.313,0.277
	c-0.017,0.016-0.034,0.033-0.051,0.049c-0.557,0.53-1.121,1.06-1.655,1.613c-0.072,0.075-0.144,0.149-0.216,0.224
	c-0.081-0.125-0.185-0.235-0.322-0.301c-0.242-0.223-0.463-0.472-0.692-0.706c-0.335-0.341-0.67-0.682-1.003-1.022
	c-0.163-0.166-0.383-0.247-0.604-0.247c-0.223,0-0.445,0.083-0.61,0.247c-0.327,0.327-0.335,0.888,0,1.213
	c0.36,0.349,0.729,0.689,1.103,1.02c0.266,0.234,0.559,0.455,0.8,0.717c0.061,0.086,0.144,0.154,0.236,0.211
	c-0.096,0.098-0.188,0.199-0.285,0.295c-0.423,0.42-0.85,0.834-1.277,1.249c-0.023-0.014-0.041-0.035-0.066-0.046
	c-0.003-0.001-0.006-0.003-0.009-0.004c-0.157-0.142-0.302-0.299-0.45-0.449c-0.258-0.262-0.518-0.522-0.78-0.78
	c-0.161-0.159-0.375-0.239-0.589-0.239c-0.213,0-0.425,0.079-0.585,0.239c-0.313,0.315-0.327,0.863,0,1.176
	c0.272,0.258,0.55,0.512,0.827,0.764c0.165,0.148,0.331,0.303,0.503,0.448c-0.453,0.434-0.917,0.853-1.395,1.258
	c-0.034-0.033-0.071-0.063-0.106-0.096c-0.25-0.238-0.481-0.494-0.699-0.76c-0.175-0.211-0.337-0.427-0.526-0.626
	c-0.205-0.215-0.422-0.418-0.636-0.624c-0.491-0.471-0.946-0.987-1.391-1.501c-0.466-0.535-0.955-1.051-1.439-1.572
	c0.135-0.154,0.272-0.306,0.407-0.461c0.262-0.301,0.544-0.585,0.812-0.883c0.286-0.319,0.563-0.642,0.861-0.951
	c0.292-0.301,0.595-0.591,0.89-0.89c0.565-0.577,1.111-1.176,1.665-1.763c0.565-0.599,1.156-1.172,1.741-1.749
	c1.133-1.119,2.311-2.193,3.463-3.29c0.609-0.579,1.21-1.168,1.814-1.751c0.278-0.268,0.552-0.54,0.835-0.8
	c0.333-0.305,0.676-0.601,1.014-0.9c0.286-0.25,0.563-0.51,0.847-0.762c0.305-0.272,0.622-0.526,0.93-0.792
	c0.303-0.264,0.595-0.544,0.894-0.814c0.297-0.272,0.603-0.536,0.9-0.808c0.579-0.532,1.17-1.05,1.747-1.584
	c0.589-0.544,1.196-1.064,1.781-1.607c0.262-0.244,0.521-0.491,0.787-0.729c0.402,0.432,0.803,0.866,1.202,1.3
	c0.443,0.481,0.875,0.975,1.34,1.434c0.451,0.445,0.916,0.873,1.373,1.31c0.231,0.223,0.472,0.439,0.704,0.662
	c-0.1,0.106-0.2,0.212-0.295,0.324C28.488,8.678,28.254,8.946,28.014,9.206z M11.633,24.913c-0.006-0.008-0.012-0.016-0.018-0.023
	c-0.002-0.006-0.003-0.011-0.005-0.017C11.618,24.886,11.625,24.9,11.633,24.913z"/>
</svg>